# xmcd
#
# Track frame offsets:
#	150
#	8775
#	16616
#	32137
#	41275
#	61444
#	76633
#	92598
#	104536
#	118456
#	138845
#	151879
#	159238
#
# Disc length: 2338 seconds
#
# Revision: 0
# Processed by: cddbd v1.4PL0 Copyright (c) Steve Scherf et al.
# Submitted via: audiograbber 1.81.03
#
DISCID=8e09200d
DTITLE=Karamasov Bros. - Hot, Fat ´n´ Spicy
DYEAR=2000
DGENRE=Country
TTITLE0=Hot Rod
TTITLE1=Wild boys never die
TTITLE2=Starry Night
TTITLE3=Chi-Chi Ri-Ri
TTITLE4=High wire
TTITLE5=I show my glass
TTITLE6=Small town girl
TTITLE7=Big boss man
TTITLE8=Don´t tell me what to do
TTITLE9=I just wan´t you
TTITLE10=Buffalo
TTITLE11=Flamin´ heart
TTITLE12=Two trains
EXTD=
EXTT0=
EXTT1=
EXTT2=
EXTT3=
EXTT4=
EXTT5=
EXTT6=
EXTT7=
EXTT8=
EXTT9=
EXTT10=
EXTT11=
EXTT12=
PLAYORDER=
